<?xml version="1.0" standalone="no"?>
<!DOCTYPE svg PUBLIC "-//W3C//DTD SVG 20010904//EN"
 "http://www.w3.org/TR/2001/REC-SVG-20010904/DTD/svg10.dtd">
<svg version="1.0" xmlns="http://www.w3.org/2000/svg"
 width="1280.000000pt" height="1026.000000pt" viewBox="0 0 1280.000000 1026.000000"
 preserveAspectRatio="xMidYMid meet">
<metadata>
Created by potrace 1.15, written by Peter Selinger 2001-2017
</metadata>
<g transform="translate(0.000000,1026.000000) scale(0.100000,-0.100000)"
fill="#000000" stroke="none">
<path d="M3624 9748 c-324 -281 -820 -711 -1102 -956 -317 -275 -511 -450
-508 -458 3 -8 452 -568 998 -1245 l993 -1232 7 149 c40 830 103 2183 148
3154 22 481 44 925 49 985 5 61 8 111 7 112 -2 2 -268 -227 -592 -509z"/>
<path d="M6544 8937 c-642 -618 -1507 -1450 -1567 -1506 l-67 -64 17 -26 c9
-14 429 -541 932 -1170 l916 -1144 3 1037 c1 571 1 1501 0 2066 l-3 1029 -231
-222z"/>
<path d="M1807 7873 c-20 -60 -86 -263 -147 -453 -62 -190 -165 -509 -230
-710 -65 -201 -168 -518 -228 -705 -61 -187 -219 -675 -352 -1085 -133 -410
-284 -875 -335 -1035 -52 -159 -189 -580 -304 -935 -115 -355 -206 -648 -203
-652 4 -3 785 -250 1737 -548 952 -298 1791 -561 1865 -584 74 -24 136 -42
138 -41 1 1 41 744 87 1651 46 907 87 1696 90 1754 3 58 17 312 30 565 l23
459 -21 26 c-85 100 -2098 2389 -2106 2394 -5 3 -25 -42 -44 -101z"/>
<path d="M4762 6577 c-55 -345 -133 -828 -371 -2297 -77 -476 -192 -1187 -256
-1580 -63 -393 -129 -800 -146 -903 -17 -104 -29 -190 -27 -192 3 -3 105 -20
1568 -255 514 -83 1003 -162 1087 -175 83 -14 154 -25 157 -25 3 0 6 807 6
1793 l-1 1792 -257 286 c-141 157 -581 646 -977 1087 -396 441 -722 802 -725
802 -3 0 -29 -150 -58 -333z"/>
<path d="M7297 5819 c31 -55 453 -810 1570 -2814 344 -616 636 -1139 649
-1162 24 -42 26 -43 77 -43 29 0 363 -13 742 -30 380 -16 967 -41 1305 -54
338 -14 646 -27 683 -30 38 -3 67 -1 65 3 -2 4 -176 150 -388 323 -993 811
-3561 2908 -4245 3468 -253 207 -466 380 -474 385 -8 4 -1 -16 16 -46z"/>
<path d="M7020 3377 c0 -1148 3 -2087 6 -2087 6 0 1416 132 2133 200 227 21
415 41 418 43 2 3 -287 452 -643 999 -356 546 -928 1425 -1272 1953 -343 528
-628 964 -633 970 -5 5 -9 -870 -9 -2078z"/>
<path d="M12630 1610 c-545 -115 -1551 -288 -2270 -390 -1377 -196 -2488 -290
-4030 -342 -488 -16 -1894 -16 -2225 0 -951 47 -1640 127 -2392 277 -149 30
-277 55 -283 55 -9 0 -11 -30 -8 -111 l3 -110 150 -60 c196 -78 486 -222 602
-299 175 -117 297 -253 345 -387 13 -37 23 -92 26 -150 l4 -93 3263 0 3262 0
5 68 c18 248 355 475 1053 711 584 197 1660 442 2612 596 51 8 53 14 53 158 0
96 -2 107 -17 106 -10 -1 -79 -14 -153 -29z"/>
</g>
</svg>
