<?xml version="1.0" standalone="no"?>
<!DOCTYPE svg PUBLIC "-//W3C//DTD SVG 20010904//EN"
 "http://www.w3.org/TR/2001/REC-SVG-20010904/DTD/svg10.dtd">
<svg version="1.0" xmlns="http://www.w3.org/2000/svg"
 width="1077.000000pt" height="1280.000000pt" viewBox="0 0 1077.000000 1280.000000"
 preserveAspectRatio="xMidYMid meet">
<metadata>
Created by potrace 1.15, written by Peter Selinger 2001-2017
</metadata>
<g transform="translate(0.000000,1280.000000) scale(0.100000,-0.100000)"
fill="#000000" stroke="none">
<path d="M5440 12651 c0 -43 -5 -204 -10 -357 -86 -2391 -370 -4083 -795
-4728 -116 -177 -331 -403 -552 -583 -482 -392 -1235 -784 -1998 -1039 -200
-67 -205 -70 -201 -94 3 -14 8 -45 12 -69 l6 -44 437 7 c240 3 954 11 1586 16
633 6 1273 13 1423 16 l272 6 0 427 c0 309 -38 6501 -40 6519 0 1 -31 2 -70 2
l-70 0 0 -79z"/>
<path d="M5796 12377 l-49 -11 6 -475 c4 -262 16 -1716 28 -3231 12 -1515 24
-2757 26 -2759 1 -2 249 -8 550 -12 302 -5 867 -13 1257 -19 390 -6 711 -8
715 -5 3 4 6 178 5 388 0 466 -25 738 -99 1111 -52 263 -222 692 -582 1471
-303 655 -963 1992 -1486 3008 -237 462 -284 547 -302 546 -11 -1 -42 -7 -69
-12z"/>
<path d="M7565 5670 c-764 -21 -1586 -43 -1825 -49 -239 -6 -592 -16 -785 -21
-411 -11 -803 -22 -2243 -59 -584 -16 -1065 -31 -1068 -34 -14 -13 59 -292
107 -415 16 -40 29 -74 29 -76 0 -2 -21 2 -46 10 -233 70 -625 -39 -1214 -339
-148 -75 -473 -253 -498 -272 -2 -1 7 -18 18 -38 l21 -35 147 85 c81 46 239
131 352 188 464 234 791 345 1012 345 194 0 310 -69 560 -336 213 -227 314
-300 449 -325 105 -19 259 11 392 78 26 13 47 21 47 18 0 -2 -30 -20 -67 -39
-49 -25 -61 -34 -43 -34 14 0 57 -9 95 -22 89 -28 108 -33 235 -65 58 -14 121
-30 140 -35 19 -5 62 -14 95 -20 33 -6 78 -15 100 -20 22 -4 72 -13 110 -19
39 -7 95 -16 125 -21 87 -14 273 -35 545 -62 86 -9 298 -13 625 -13 476 0 533
3 855 36 181 18 443 56 550 79 22 5 67 14 100 21 138 27 264 57 335 79 14 4
59 18 100 30 104 31 259 87 350 127 57 25 165 77 170 83 3 3 25 16 50 29 25
14 51 31 58 38 7 7 17 13 21 13 4 0 21 11 36 24 16 14 32 23 37 20 4 -3 8 -3
8 -1 0 3 -22 19 -50 37 -27 18 -50 34 -50 37 0 6 -2 7 186 -113 311 -198 440
-246 669 -245 214 0 300 40 495 226 145 139 211 182 340 223 89 28 155 40 290
52 294 25 1032 -7 1146 -50 24 -10 30 -8 50 17 13 15 23 31 24 36 2 44 -468
87 -962 87 -300 0 -455 -20 -618 -79 -121 -45 -190 -92 -334 -230 -137 -132
-180 -160 -285 -187 -63 -16 -261 -18 -276 -3 -3 4 212 293 479 643 l485 636
-142 -1 c-78 -1 -767 -19 -1532 -39z m-25 -966 c0 -2 -9 0 -20 6 -11 6 -20 13
-20 16 0 2 9 0 20 -6 11 -6 20 -13 20 -16z"/>
</g>
</svg>
