<?xml version="1.0" standalone="no"?>
<!DOCTYPE svg PUBLIC "-//W3C//DTD SVG 20010904//EN"
 "http://www.w3.org/TR/2001/REC-SVG-20010904/DTD/svg10.dtd">
<svg version="1.0" xmlns="http://www.w3.org/2000/svg"
 width="1230.000000pt" height="1280.000000pt" viewBox="0 0 1230.000000 1280.000000"
 preserveAspectRatio="xMidYMid meet">
<metadata>
Created by potrace 1.15, written by Peter Selinger 2001-2017
</metadata>
<g transform="translate(0.000000,1280.000000) scale(0.100000,-0.100000)"
fill="#000000" stroke="none">
<path d="M7390 12763 c305 -1009 518 -2009 644 -3033 185 -1492 176 -3061 -24
-4550 -104 -773 -264 -1571 -460 -2287 -28 -100 -50 -185 -50 -188 0 -4 6 -5
14 -2 8 3 70 17 138 31 286 59 606 104 908 127 201 16 762 16 960 0 628 -50
1169 -160 1733 -353 66 -22 122 -36 127 -32 8 9 49 301 74 529 106 939 85
1932 -60 2880 -404 2641 -1765 5043 -3832 6764 -90 75 -167 137 -172 139 -5 2
-5 -9 0 -25z"/>
<path d="M6420 12183 c-17 -78 -129 -486 -180 -658 -773 -2609 -2128 -4992
-3984 -7004 -599 -650 -1395 -1388 -2018 -1871 -32 -24 -56 -46 -54 -47 2 -2
59 24 127 58 684 339 1479 560 2319 646 252 26 999 26 1250 0 815 -83 1544
-281 2253 -611 54 -25 100 -46 103 -46 6 0 111 212 195 392 890 1919 1204
4064 903 6178 -132 933 -397 1878 -761 2725 -128 298 -127 295 -134 295 -3 0
-12 -26 -19 -57z"/>
<path d="M12130 2419 c-317 -85 -948 -232 -1420 -329 -3372 -697 -6944 -785
-10359 -255 -124 19 -226 34 -227 32 -1 -1 2 -108 6 -237 19 -495 -34 -1156
-126 -1568 -4 -19 2 -26 41 -43 41 -18 53 -19 143 -9 265 28 1039 91 1487 120
2273 146 4494 131 6790 -46 l340 -26 157 71 c1147 516 2277 1290 3168 2168 91
89 161 162 155 162 -5 0 -75 -18 -155 -40z"/>
</g>
</svg>
