<?xml version="1.0" standalone="no"?>
<!DOCTYPE svg PUBLIC "-//W3C//DTD SVG 20010904//EN"
 "http://www.w3.org/TR/2001/REC-SVG-20010904/DTD/svg10.dtd">
<svg version="1.0" xmlns="http://www.w3.org/2000/svg"
 width="1280.000000pt" height="720.000000pt" viewBox="0 0 1280.000000 720.000000"
 preserveAspectRatio="xMidYMid meet">
<metadata>
Created by potrace 1.15, written by Peter Selinger 2001-2017
</metadata>
<g transform="translate(0.000000,720.000000) scale(0.100000,-0.100000)"
fill="#000000" stroke="none">
<path d="M4315 5979 c-120 -20 -198 -62 -282 -153 -68 -72 -118 -164 -133
-245 -14 -74 -14 -3938 0 -4012 26 -137 130 -273 258 -336 l76 -38 2000 0
c1913 0 2004 1 2060 18 192 59 327 190 372 361 20 75 20 3956 0 4031 -21 79
-64 154 -124 217 -67 70 -132 113 -215 142 l-62 21 -1950 1 c-1072 1 -1972 -2
-2000 -7z m2395 -2135 l0 -1559 -1240 -2 c-682 -2 -1240 0 -1240 3 0 8 2473
3125 2477 3121 1 -2 3 -705 3 -1563z m897 -301 l730 -1252 -41 -6 c-23 -3
-354 -5 -736 -3 l-695 3 -3 1265 c-1 717 2 1260 7 1255 4 -6 337 -573 738
-1262z m182 -1349 c10 -9 -124 -170 -229 -274 -87 -88 -132 -124 -187 -153
-130 -68 -225 -68 -324 -1 l-50 33 -45 -34 c-105 -80 -258 -73 -351 17 l-33
32 -27 -27 c-96 -91 -290 -95 -381 -8 l-23 22 -38 -31 c-56 -44 -102 -60 -169
-60 -72 0 -134 21 -184 61 l-37 29 -45 -34 c-53 -40 -88 -50 -175 -48 -161 3
-283 135 -356 387 -14 48 -25 91 -25 95 0 8 2671 1 2679 -6z"/>
</g>
</svg>
