<?xml version="1.0" standalone="no"?>
<!DOCTYPE svg PUBLIC "-//W3C//DTD SVG 20010904//EN"
 "http://www.w3.org/TR/2001/REC-SVG-20010904/DTD/svg10.dtd">
<svg version="1.0" xmlns="http://www.w3.org/2000/svg"
 width="640.000000pt" height="1280.000000pt" viewBox="0 0 640.000000 1280.000000"
 preserveAspectRatio="xMidYMid meet">
<metadata>
Created by potrace 1.15, written by Peter Selinger 2001-2017
</metadata>
<g transform="translate(0.000000,1280.000000) scale(0.100000,-0.100000)"
fill="#000000" stroke="none">
<path d="M640 11095 l0 -1695 2380 0 c1309 0 2380 2 2380 4 0 3 -137 102 -305
222 -168 119 -305 220 -305 223 0 7 131 92 178 115 37 19 43 39 10 31 -75 -16
-156 -26 -248 -31 l-105 -6 -149 107 c-151 110 -162 124 -91 125 82 0 751 93
764 106 9 9 -38 86 -633 1029 -333 528 -608 965 -610 970 -2 6 -6 7 -10 4 -4
-4 -3 -37 2 -73 5 -36 6 -66 2 -66 -3 0 -66 20 -140 45 -74 25 -139 45 -145
44 -5 0 58 -24 140 -52 l150 -52 6 -90 c4 -49 23 -281 43 -515 59 -706 87
-1156 69 -1149 -5 2 -73 49 -151 104 l-141 100 -50 115 c-222 515 -458 1205
-448 1313 5 52 5 52 -23 35 -15 -10 -26 -9 -56 5 -89 43 -251 192 -395 362
-39 47 -73 84 -75 82 -4 -3 31 -811 41 -958 l5 -85 -34 -40 -35 -39 -1 583 c0
320 4 582 8 582 5 0 35 -9 67 -20 33 -11 63 -19 68 -17 5 1 -25 14 -67 27
l-76 24 0 83 c0 67 -3 83 -15 83 -13 0 -15 -34 -15 -250 0 -241 -1 -252 -22
-293 l-23 -42 -5 160 -5 159 -239 -347 c-162 -235 -244 -346 -254 -342 -7 3
-199 137 -425 298 -227 161 -546 389 -709 505 -164 117 -300 212 -303 212 -3
0 -5 -763 -5 -1695z m3887 195 c324 -514 592 -941 597 -947 5 -9 -1 -13 -21
-13 -25 0 -36 12 -97 113 -395 643 -955 1501 -1037 1588 -17 19 -31 46 -34 68
-14 115 -16 145 -7 136 6 -5 275 -431 599 -945z m-1902 102 c-2 -3 -11 1 -20
8 -13 11 -15 62 -15 371 0 321 2 362 18 395 17 36 17 26 20 -366 1 -222 0
-405 -3 -408z m103 -52 l-3 -30 -30 24 -29 24 29 38 30 39 3 -32 c2 -18 2 -46
0 -63z"/>
<path d="M3170 12389 c96 -32 179 -59 185 -58 5 0 -69 27 -165 60 -96 32 -179
59 -185 58 -5 0 69 -27 165 -60z"/>
<path d="M3395 12315 c17 -8 37 -14 45 -14 8 0 -1 7 -20 14 -46 18 -64 17 -25
0z"/>
<path d="M2720 8970 c0 -232 -2 -254 -20 -290 -11 -22 -22 -40 -24 -40 -2 0
-4 68 -5 152 -1 84 -3 154 -5 155 -5 5 -1496 -2163 -1499 -2181 -3 -17 262
-50 506 -62 75 -4 137 -11 137 -16 0 -5 -6 -21 -14 -37 l-15 -27 -345 49
c-190 27 -353 46 -362 43 -16 -6 -16 -8 2 -25 10 -10 161 -107 335 -214 174
-108 319 -203 322 -211 8 -20 63 -24 642 -41 1075 -33 2055 -30 2248 5 63 12
223 92 342 170 39 25 82 51 98 58 33 14 37 37 4 28 -90 -25 -507 -56 -749 -56
l-108 0 0 35 c0 23 -5 35 -14 35 -7 0 -16 14 -20 31 -7 38 -8 119 -1 119 35 0
543 57 715 80 292 39 350 49 350 64 0 7 -15 37 -33 67 -58 96 -1210 1924
-1219 1934 -10 11 -3 -163 12 -300 10 -90 51 -567 70 -810 14 -186 38 -558 50
-785 5 -107 13 -241 16 -297 5 -90 4 -103 -10 -103 -12 0 -16 -10 -16 -35 l0
-35 -122 0 c-85 0 -1203 64 -1213 70 -1 0 1 16 3 36 3 20 0 39 -7 43 -7 5 -11
192 -11 645 l-1 638 25 32 25 31 1 -632 c0 -500 3 -633 13 -633 6 0 168 9 359
20 484 28 809 57 840 76 14 9 -2 24 -27 24 -30 0 -56 44 -158 270 -255 562
-542 1372 -522 1476 6 34 -2 43 -22 23 -35 -35 -278 170 -476 401 l-47 55 0
-55 c0 -30 9 -239 20 -465 26 -550 27 -527 -10 -567 l-29 -33 -1 668 c0 586
-2 667 -15 667 -13 0 -15 -34 -15 -250z m1880 -1160 c321 -509 592 -940 603
-957 l19 -33 -29 0 c-26 0 -37 14 -127 163 -275 449 -841 1322 -963 1485 -30
39 -61 72 -69 72 -9 0 -14 11 -14 33 0 17 -3 64 -6 102 -4 39 -5 68 -2 65 3
-3 268 -421 588 -930z m-1880 -175 c0 -1048 0 -1055 -20 -1055 -16 0 -20 -7
-20 -36 0 -33 -2 -35 -27 -30 -16 3 -53 8 -83 11 -81 8 -699 84 -742 91 l-38
6 20 39 c24 46 54 55 44 13 -7 -26 -6 -27 27 -21 146 25 293 38 533 46 153 6
280 12 283 14 2 3 -2 430 -8 950 -12 908 -12 948 6 987 10 22 20 40 22 40 1 0
3 -475 3 -1055z m-1437 -984 c67 -11 174 -27 237 -36 171 -23 155 -14 157 -92
2 -37 11 -102 22 -143 11 -41 19 -76 17 -77 -3 -4 -594 363 -610 378 -5 5 5 4
23 -1 18 -5 87 -18 154 -29z"/>
<path d="M2820 9025 c46 -18 64 -17 25 0 -16 8 -37 14 -45 14 -8 0 1 -7 20
-14z"/>
<path d="M3110 8929 c129 -43 239 -79 245 -78 5 0 -96 36 -225 80 -129 43
-239 79 -245 78 -5 0 96 -36 225 -80z"/>
<path d="M3675 8744 c137 -46 254 -84 260 -83 5 0 -102 38 -240 85 -137 46
-254 84 -260 83 -5 0 102 -38 240 -85z"/>
<path d="M2867 5713 c-4 -3 -7 -106 -7 -229 0 -200 -2 -226 -20 -265 l-20 -44
0 101 c0 56 -3 122 -6 147 l-7 46 -70 -102 c-745 -1082 -1317 -1919 -1317
-1927 0 -5 6 -10 13 -10 6 0 62 -7 122 -15 104 -13 401 -37 473 -37 30 0 33
-3 28 -22 l-5 -22 107 18 c69 11 208 21 391 28 156 5 286 12 289 14 2 3 -1
398 -8 878 -11 866 -11 873 8 918 l21 45 0 -993 c1 -986 1 -994 -19 -999 -11
-3 -20 -12 -20 -19 0 -8 -4 -14 -9 -14 -27 0 -744 88 -783 96 -24 5 -26 9 -18
24 6 10 10 22 10 27 -1 4 -8 -5 -16 -20 -13 -23 -20 -27 -42 -23 -72 15 -590
86 -610 84 -29 -4 -29 -19 -1 -38 18 -11 21 -12 15 -1 -6 10 -4 12 10 8 59
-17 436 -77 484 -77 27 0 27 -1 33 -72 3 -40 13 -102 22 -137 9 -35 15 -64 13
-66 -2 -1 -118 69 -258 157 -140 88 -264 164 -275 169 -52 26 31 -28 279 -182
146 -90 268 -172 272 -181 4 -15 19 -18 97 -19 51 -1 166 -5 257 -9 91 -3
-318 -7 -909 -8 -591 -1 -1072 -5 -1069 -8 9 -8 5748 -10 5748 -1 0 4 -330 7
-732 8 -450 1 -718 4 -695 10 43 10 231 108 297 155 25 18 62 39 83 47 35 15
55 46 21 33 -53 -20 -521 -56 -736 -56 -51 0 -57 2 -60 23 -2 12 -10 22 -18
22 -12 0 -16 17 -18 81 l-3 82 83 7 c214 17 846 97 883 111 19 8 19 18 0 53
-8 16 -258 415 -556 887 -298 473 -551 874 -561 892 -11 17 -22 32 -25 32 -3
0 -2 -30 2 -66 6 -60 5 -66 -10 -60 -9 3 -29 8 -43 11 -15 3 -9 -2 14 -10 l41
-16 6 -72 c4 -40 13 -144 22 -232 28 -297 64 -788 84 -1135 35 -609 34 -560
17 -566 -9 -3 -16 -15 -16 -25 0 -17 -8 -19 -82 -19 -89 0 -1088 58 -1125 66
-14 3 -23 12 -23 23 0 11 -4 21 -9 23 -5 2 -12 268 -15 603 l-7 600 30 35 30
35 1 -582 0 -583 63 0 c60 0 190 7 547 30 223 15 455 39 486 50 29 12 23 30
-10 30 -19 0 -33 21 -94 148 -235 490 -549 1371 -526 1476 6 31 6 31 -15 12
-20 -18 -21 -18 -78 15 -66 39 -266 229 -350 332 -55 67 -58 69 -61 44 -2 -15
6 -232 18 -482 13 -292 17 -461 11 -473 -5 -9 -19 -26 -30 -36 l-21 -19 0 536
c0 296 4 537 8 537 4 0 75 -23 157 -50 82 -28 153 -49 158 -47 4 1 -66 27
-157 57 l-166 54 -1 63 c-1 35 -2 67 -3 72 -2 14 -12 22 -19 14z m1756 -1339
c295 -468 539 -859 543 -868 5 -14 2 -17 -17 -14 -18 2 -43 35 -107 138 -477
765 -878 1376 -948 1447 -18 18 -24 39 -29 105 -6 74 -5 81 8 63 7 -11 255
-403 550 -871z"/>
<path d="M3535 5344 c121 -41 224 -74 230 -73 5 0 -89 34 -210 75 -121 41
-224 74 -230 73 -5 0 89 -34 210 -75z"/>
<path d="M3517 2833 c-5 -4 -210 -11 -455 -15 -871 -15 -1035 -21 -1064 -40
-27 -18 -41 -60 -53 -164 -5 -43 -4 -52 11 -58 18 -7 208 10 264 23 19 5 107
14 195 21 88 6 195 18 239 26 104 19 190 18 210 -1 16 -17 46 -20 46 -5 0 36
111 47 845 81 274 13 411 13 820 1 138 -4 256 -6 263 -4 24 8 11 22 -47 51
-73 36 -141 51 -234 51 -40 0 -77 4 -82 9 -6 5 -46 12 -90 15 -148 10 -860 18
-868 9z"/>
<path d="M2095 2446 c-36 -23 -51 -25 -142 -26 -205 0 -423 -26 -439 -51 -5
-9 16 -46 51 -90 11 -14 31 -40 45 -59 24 -32 55 -72 103 -134 12 -15 27 -33
33 -40 6 -6 19 -24 30 -41 25 -39 45 -64 67 -84 9 -8 17 -21 17 -28 0 -6 8
-18 18 -25 11 -7 24 -23 30 -35 7 -12 18 -27 24 -35 7 -7 42 -51 78 -98 35
-47 67 -87 70 -90 4 -3 11 -12 16 -21 5 -9 24 -34 41 -55 18 -22 78 -97 133
-169 55 -71 106 -137 113 -145 6 -9 29 -36 50 -62 20 -25 37 -49 37 -52 0 -3
7 -14 15 -23 57 -65 75 -89 75 -97 0 -5 10 -19 23 -31 12 -12 31 -34 42 -49
11 -15 30 -39 43 -53 12 -14 22 -29 22 -32 0 -15 78 -94 87 -88 5 3 13 68 17
143 4 76 12 172 18 213 7 56 7 177 -2 451 -10 288 -10 388 -1 430 14 66 27
352 17 402 -8 44 -19 47 -166 58 -58 5 -150 13 -205 18 -55 6 -149 13 -210 17
-105 5 -112 5 -150 -19z"/>
<path d="M3019 2434 c-11 -14 -15 -111 -21 -538 -8 -565 -12 -767 -23 -1035
-4 -105 -3 -177 3 -183 6 -6 39 19 88 66 43 42 82 76 85 76 3 0 20 12 37 27
49 45 59 52 95 69 18 9 42 29 53 45 10 16 27 29 36 29 24 0 43 34 58 100 7 30
16 64 21 75 4 11 15 45 25 75 9 30 20 60 24 65 4 6 11 25 15 43 3 17 10 32 15
32 4 0 10 13 13 29 3 15 17 53 31 84 15 31 26 59 26 64 1 4 9 26 20 48 11 22
19 43 20 47 0 4 11 31 24 60 57 126 136 309 136 314 0 3 5 10 10 17 9 11 75
136 118 225 9 17 19 32 23 32 11 0 21 57 15 78 -6 17 -25 20 -154 31 -150 12
-442 29 -658 37 -105 4 -122 3 -135 -12z"/>
<path d="M4250 2426 c-9 -25 -14 -74 -45 -426 -7 -85 -20 -231 -29 -325 -52
-560 -52 -618 0 -585 11 6 62 68 114 136 52 68 105 136 118 150 12 14 22 29
22 34 0 5 6 15 13 22 14 15 74 95 97 128 8 12 41 59 72 104 32 44 68 96 80
114 13 18 31 42 41 54 9 11 17 24 17 28 0 3 8 15 18 26 30 34 112 144 112 150
0 3 13 23 29 43 51 65 121 170 121 180 0 6 4 11 10 11 12 0 40 54 40 78 0 24
-18 32 -70 32 -21 0 -41 4 -44 8 -3 5 -45 12 -93 16 -48 3 -155 14 -238 23
-82 9 -201 18 -263 20 l-112 4 -10 -25z"/>
</g>
</svg>
