<?xml version="1.0" standalone="no"?>
<!DOCTYPE svg PUBLIC "-//W3C//DTD SVG 20010904//EN"
 "http://www.w3.org/TR/2001/REC-SVG-20010904/DTD/svg10.dtd">
<svg version="1.0" xmlns="http://www.w3.org/2000/svg"
 width="974.000000pt" height="1280.000000pt" viewBox="0 0 974.000000 1280.000000"
 preserveAspectRatio="xMidYMid meet">
<metadata>
Created by potrace 1.15, written by Peter Selinger 2001-2017
</metadata>
<g transform="translate(0.000000,1280.000000) scale(0.100000,-0.100000)"
fill="#000000" stroke="none">
<path d="M4345 12785 c-33 -7 -82 -22 -108 -32 l-49 -19 2 -292 c0 -196 -3
-292 -10 -292 -7 0 -10 100 -10 303 l0 304 -30 -5 -30 -4 0 -449 c0 -436 -1
-449 -20 -459 -15 -8 -18 -15 -10 -33 10 -26 32 -365 30 -492 0 -49 4 -1136
10 -2415 18 -3933 27 -6565 24 -6569 -3 -3 -2840 -19 -3601 -21 l-363 0 0 -35
0 -36 63 5 c34 3 927 8 1985 11 l1922 6 0 -244 0 -244 -417 -7 c-920 -15
-1947 -53 -3043 -111 -772 -42 -690 -35 -690 -61 0 -48 374 -359 685 -569 977
-658 2135 -995 3515 -1021 1413 -28 3022 296 4665 939 367 143 875 375 875
400 0 22 -336 113 -635 171 -454 88 -1060 156 -1780 200 -692 43 -1198 57
-2225 61 l-885 4 -3 239 -2 239 627 7 c346 3 1496 8 2558 11 1062 3 2017 8
2123 11 l192 6 0 31 0 30 -1202 -6 c-662 -4 -1899 -10 -2749 -14 l-1546 -6 -6
1454 c-4 800 -12 2799 -18 4443 l-11 2989 88 82 89 82 67 -61 c114 -103 178
-142 264 -162 190 -42 466 27 745 187 48 27 95 49 106 49 10 0 43 15 73 33 44
26 63 48 106 117 56 90 65 113 37 88 -10 -9 -72 -52 -137 -97 -130 -88 -142
-92 -248 -70 -130 26 -283 93 -472 207 -70 42 -156 101 -190 131 -139 122
-313 157 -482 97 l-41 -14 -7 75 c-3 42 -6 93 -6 115 0 39 13 51 24 22 5 -12
28 1 108 63 57 44 109 83 116 87 10 6 38 -18 95 -79 88 -95 122 -120 212 -155
86 -34 288 -34 425 -1 111 28 251 77 358 126 41 19 85 35 97 35 12 0 46 12 76
28 41 20 67 44 107 97 57 76 79 110 65 103 -4 -3 -46 -27 -93 -55 -47 -28
-111 -64 -143 -81 -57 -29 -58 -29 -126 -16 -178 33 -483 213 -682 401 -47 44
-105 91 -127 102 -97 49 -218 62 -337 36z"/>
<path d="M4292 10573 c4 -137 17 -567 28 -958 11 -390 29 -1018 40 -1395 11
-377 29 -1002 40 -1390 11 -388 29 -1018 40 -1400 11 -382 29 -1001 40 -1375
11 -374 23 -795 26 -936 l7 -256 671 -7 c601 -6 1453 -13 3506 -31 l655 -6
-121 63 c-180 94 -302 187 -488 372 -803 798 -1991 2714 -3466 5586 -199 388
-694 1386 -855 1727 -66 139 -122 252 -125 253 -3 0 -2 -111 2 -247z"/>
<path d="M3191 8060 c-36 -433 -78 -737 -152 -1104 -201 -996 -593 -2018
-1137 -2965 -210 -366 -473 -764 -650 -985 -63 -78 -63 -76 28 -120 41 -19 61
-21 240 -20 325 1 690 65 1445 256 256 64 903 243 911 251 12 13 -224 1835
-437 3372 -49 358 -117 844 -149 1080 -33 237 -63 448 -68 470 -6 30 -13 -27
-31 -235z"/>
</g>
</svg>
