<?xml version="1.0" standalone="no"?>
<!DOCTYPE svg PUBLIC "-//W3C//DTD SVG 20010904//EN"
 "http://www.w3.org/TR/2001/REC-SVG-20010904/DTD/svg10.dtd">
<svg version="1.0" xmlns="http://www.w3.org/2000/svg"
 width="1089.000000pt" height="1280.000000pt" viewBox="0 0 1089.000000 1280.000000"
 preserveAspectRatio="xMidYMid meet">
<metadata>
Created by potrace 1.15, written by Peter Selinger 2001-2017
</metadata>
<g transform="translate(0.000000,1280.000000) scale(0.100000,-0.100000)"
fill="#000000" stroke="none">
<path d="M4580 12795 c0 -3 42 -32 93 -66 231 -156 388 -296 471 -424 74 -112
95 -169 113 -304 9 -64 17 -117 18 -119 1 -1 61 21 134 48 228 87 470 140 643
140 129 0 276 -40 366 -101 23 -16 45 -29 48 -29 9 0 -37 71 -69 110 -157 184
-491 255 -834 177 l-102 -23 -17 40 c-46 118 -176 271 -299 353 -122 82 -276
147 -415 176 -89 19 -150 27 -150 22z"/>
<path d="M3257 11602 c481 -319 781 -604 925 -878 67 -126 96 -234 119 -436
12 -101 22 -184 23 -185 1 -1 76 27 167 63 619 244 1155 324 1526 228 107 -27
248 -90 333 -147 30 -20 56 -34 58 -32 13 12 -91 160 -162 230 -215 214 -516
318 -921 318 -202 0 -349 -17 -544 -64 -68 -16 -125 -28 -126 -27 -1 2 -25 51
-52 109 -136 286 -358 509 -683 687 -215 117 -596 232 -767 232 l-44 0 148
-98z"/>
<path d="M4495 9796 c-1536 -549 -2489 -1564 -2765 -2946 -51 -260 -82 -648
-66 -843 l8 -88 43 38 c284 248 424 359 621 490 638 426 1313 672 2086 760
193 22 768 25 958 5 286 -30 623 -93 808 -151 75 -23 92 -26 88 -14 -10 26
-1651 2792 -1656 2792 -3 0 -59 -19 -125 -43z"/>
<path d="M4605 6863 c-529 -42 -886 -125 -1310 -305 -598 -254 -1186 -715
-1557 -1222 -84 -116 -93 -151 -92 -376 0 -161 4 -201 27 -310 69 -329 222
-743 417 -1130 87 -172 75 -166 145 -63 650 960 1830 1544 3400 1682 527 47
1168 37 1654 -24 63 -8 116 -13 119 -10 6 6 -756 1385 -777 1407 -33 34 -464
168 -749 233 -374 85 -739 127 -1077 123 -88 -1 -178 -3 -200 -5z"/>
<path d="M5865 4793 c-136 -7 -391 -36 -556 -64 -1023 -171 -1960 -707 -2618
-1499 -148 -177 -351 -467 -351 -500 0 -11 1227 -1614 1238 -1617 4 -1 55 95
114 215 548 1112 1304 1813 2247 2082 320 91 500 114 896 115 333 0 454 -10
720 -61 353 -68 769 -200 1009 -321 37 -19 69 -33 70 -31 2 2 -201 334 -449
738 l-453 735 -41 12 c-187 54 -654 139 -916 167 -304 32 -642 43 -910 29z"/>
<path d="M6960 3294 c-194 -17 -433 -61 -427 -78 3 -6 109 -281 237 -611 128
-330 234 -605 237 -611 2 -6 37 -15 76 -18 148 -15 468 -57 642 -86 675 -110
1141 -254 1358 -418 37 -28 67 -50 67 -49 0 1 -135 319 -299 707 l-299 705
-98 68 c-267 184 -611 315 -984 372 -93 15 -421 27 -510 19z"/>
<path d="M5800 1716 c0 -5 588 -1108 594 -1113 1 -2 81 13 177 32 393 80 814
150 1124 186 61 8 193 14 295 14 174 0 188 -1 238 -24 69 -31 112 -80 112
-128 0 -30 -9 -45 -54 -90 l-54 -55 421 7 c326 6 427 10 443 21 62 38 86 143
49 214 -160 306 -1248 626 -3045 895 -129 19 -250 37 -267 40 -18 3 -33 4 -33
1z"/>
<path d="M5372 1218 c-24 -227 -43 -421 -42 -430 0 -17 18 -18 253 -17 138 1
294 4 345 8 l94 6 -107 130 c-224 272 -419 545 -471 660 -14 30 -26 55 -28 55
-1 0 -21 -186 -44 -412z"/>
<path d="M4696 744 c-145 -32 -651 -257 -887 -395 l-66 -38 -95 19 c-52 11
-170 42 -262 69 -92 28 -204 55 -248 62 -141 20 -325 0 -464 -52 -52 -20 -54
-22 -54 -57 0 -95 -34 -145 -99 -144 -46 1 -82 18 -166 77 -82 57 -130 81
-222 107 -112 32 -363 32 -508 0 -91 -21 -142 -24 -583 -33 -471 -10 -485 -11
-570 -35 -196 -57 -336 -129 -415 -213 -26 -27 -47 -55 -47 -60 0 -5 24 -12
52 -15 29 -3 2301 -10 5048 -16 2747 -5 5157 -13 5355 -16 198 -3 357 -3 353
2 -7 6 -198 23 -1493 134 -389 33 -1394 147 -1554 177 -25 4 -61 32 -141 109
l-107 103 -234 -70 c-441 -131 -495 -152 -609 -229 -95 -64 -120 -74 -190 -73
-49 0 -91 9 -170 37 -354 126 -519 172 -899 251 -142 29 -220 50 -233 62 -11
10 -37 43 -58 73 -85 123 -161 170 -289 176 -46 2 -103 -2 -145 -12z"/>
</g>
</svg>
