<?xml version="1.0" standalone="no"?>
<!DOCTYPE svg PUBLIC "-//W3C//DTD SVG 20010904//EN"
 "http://www.w3.org/TR/2001/REC-SVG-20010904/DTD/svg10.dtd">
<svg version="1.0" xmlns="http://www.w3.org/2000/svg"
 width="669.000000pt" height="1280.000000pt" viewBox="0 0 669.000000 1280.000000"
 preserveAspectRatio="xMidYMid meet">
<metadata>
Created by potrace 1.15, written by Peter Selinger 2001-2017
</metadata>
<g transform="translate(0.000000,1280.000000) scale(0.100000,-0.100000)"
fill="#000000" stroke="none">
<path d="M5 12770 c2 -14 23 -131 46 -260 467 -2676 1154 -5305 1897 -7255
l69 -180 -61 -22 c-70 -25 -126 -78 -126 -118 0 -71 55 -139 205 -255 138
-106 150 -130 149 -295 -2 -190 -48 -361 -108 -400 -33 -22 -79 -16 -230 31
-131 41 -222 52 -266 34 -59 -24 -153 -186 -165 -285 -9 -69 14 -148 59 -206
19 -24 75 -73 125 -109 49 -36 90 -67 90 -70 0 -3 -14 -12 -31 -20 -23 -11
-43 -35 -70 -85 -74 -137 -98 -274 -60 -342 20 -36 906 -912 1128 -1115 261
-239 405 -348 459 -348 75 0 280 -194 524 -495 l73 -89 -38 -30 c-82 -63 -227
-214 -271 -278 -70 -107 -86 -162 -84 -300 1 -64 6 -149 11 -190 5 -40 10 -76
10 -80 0 -11 2400 -10 2400 0 0 13 -281 295 -403 405 -309 277 -595 467 -799
532 l-68 22 -282 449 c-155 247 -282 459 -282 470 -1 14 371 483 1061 1340
l1063 1319 325 190 c179 104 322 192 317 196 -4 4 -169 73 -367 154 l-360 146
-2950 3756 c-1622 2066 -2960 3768 -2973 3782 l-22 26 5 -25z m4082 -6298 c32
-27 114 -107 183 -178 209 -217 374 -429 452 -582 53 -105 54 -146 7 -292
l-35 -105 -827 -3 c-455 -1 -827 1 -827 4 0 8 48 73 284 389 379 507 642 815
697 815 4 0 34 -22 66 -48z m533 -1334 c0 -34 -193 -452 -307 -665 l-77 -143
-671 0 -672 0 -31 103 c-42 135 -63 275 -65 423 l-2 122 59 86 59 86 854 0
c646 0 853 -3 853 -12z m-496 -990 c-4 -7 -36 -56 -72 -108 -173 -252 -348
-419 -491 -465 l-51 -17 -40 27 c-119 82 -277 243 -374 378 -53 74 -116 177
-116 189 0 4 259 8 576 8 457 0 574 -3 568 -12z m-1614 -250 c46 -101 121
-261 167 -357 45 -96 83 -175 83 -177 0 -2 -121 -4 -268 -4 l-269 0 13 103
c28 231 74 439 115 519 27 53 58 98 68 98 4 0 45 -82 91 -182z m318 -804 c72
-7 82 -15 124 -98 53 -105 187 -344 285 -509 52 -87 93 -160 91 -162 -7 -6
-245 145 -371 236 -294 211 -456 430 -377 509 26 26 88 40 150 34 19 -2 63 -6
98 -10z"/>
</g>
</svg>
