<?xml version="1.0" standalone="no"?>
<!DOCTYPE svg PUBLIC "-//W3C//DTD SVG 20010904//EN"
 "http://www.w3.org/TR/2001/REC-SVG-20010904/DTD/svg10.dtd">
<svg version="1.0" xmlns="http://www.w3.org/2000/svg"
 width="1280.000000pt" height="1064.000000pt" viewBox="0 0 1280.000000 1064.000000"
 preserveAspectRatio="xMidYMid meet">
<metadata>
Created by potrace 1.15, written by Peter Selinger 2001-2017
</metadata>
<g transform="translate(0.000000,1064.000000) scale(0.100000,-0.100000)"
fill="#000000" stroke="none">
<path d="M8286 10632 c-16 -2 -36 -12 -45 -22 -21 -24 -4590 -2173 -4618
-2172 -18 0 -23 -6 -23 -25 0 -16 -7 -27 -20 -30 -15 -4 -20 -14 -20 -40 0
-25 -278 -625 -1006 -2171 -554 -1175 -1355 -2877 -1781 -3781 -425 -904 -772
-1645 -770 -1648 8 -7 592 -20 600 -13 10 9 -221 20 -420 20 -107 0 -153 3
-153 11 0 7 268 581 596 1278 328 696 943 2001 1366 2900 423 899 776 1646
784 1660 25 43 9 5 -76 -184 -45 -99 -170 -387 -277 -640 -107 -253 -226 -527
-265 -610 -171 -364 -216 -462 -298 -655 -272 -638 -510 -1357 -741 -2238 -97
-372 -229 -915 -223 -922 3 -2 235 -19 517 -37 282 -18 865 -55 1297 -83 432
-27 795 -50 808 -50 l22 0 1 363 c1 199 5 553 8 787 6 346 7 239 9 -572 l2
-997 33 -3 c77 -8 -2248 -19 -2592 -12 -429 8 -406 12 -355 -68 15 -23 60
-111 100 -196 98 -205 142 -250 335 -345 74 -36 178 -82 231 -101 l97 -36
4440 0 4440 0 274 135 c150 74 316 163 368 197 158 104 313 267 452 472 66 99
218 348 214 352 -1 2 -90 -5 -197 -16 -107 -10 -198 -15 -202 -11 -12 11 -595
1296 -589 1298 3 2 278 -112 611 -252 333 -141 793 -335 1024 -432 l418 -177
59 -124 c33 -69 58 -126 57 -127 -2 -1 -261 -29 -577 -63 -315 -34 -576 -64
-579 -67 -3 -3 -3 -7 -1 -9 2 -2 265 25 583 60 400 43 581 66 587 75 4 7 4 20
-1 28 -6 13 -2398 4950 -3185 6576 -383 791 -849 1753 -1069 2206 -166 343
-206 433 -206 467 0 46 -3 49 -44 44z m-198 -127 c-2 -3 -819 -549 -1814
-1214 -995 -665 -1808 -1213 -1807 -1219 1 -5 651 -1141 1443 -2525 l1441
-2516 -32 -153 c-17 -84 -32 -154 -34 -156 -3 -3 216 -344 -1835 2858 -992
1548 -1803 2821 -1804 2827 -1 7 91 57 204 110 617 291 4236 1992 4239 1993 2
0 2 -2 -1 -5z m420 -365 l162 -335 106 -1215 c58 -668 133 -1536 168 -1927 34
-392 59 -709 55 -705 -4 4 -101 214 -216 467 l-208 460 10 293 c6 172 6 297 1
302 -5 5 -64 616 -132 1357 -93 1013 -123 1386 -124 1503 0 84 4 150 8 145 5
-6 82 -161 170 -345z m-58 -1444 c61 -670 107 -1222 103 -1226 -7 -6 -194 -41
-215 -40 -5 0 -7 566 -7 1258 1 691 3 1250 5 1242 2 -8 53 -564 114 -1234z
m-4982 -908 c-195 -258 -325 -473 -541 -893 -76 -148 -136 -263 -134 -255 4
11 563 1197 741 1570 l21 45 3 -172 2 -171 -92 -124z m331 -1980 l1 -38 -80 0
-80 0 1 1038 1 1037 79 -1000 c43 -550 78 -1017 78 -1037z m4773 1505 c-2 -76
-7 -194 -10 -263 l-7 -125 -108 239 c-60 131 -106 240 -104 242 5 6 184 41
213 43 20 1 20 -2 16 -136z m-130 -178 c54 -118 82 -192 76 -196 -7 -5 -7
-113 2 -357 15 -393 27 7 -110 -3832 -65 -1808 -64 -1768 -52 -1755 5 6 14
172 21 370 30 924 161 4562 165 4575 2 8 4 -10 5 -40 0 -30 37 -953 81 -2050
44 -1097 80 -2013 80 -2036 l0 -40 453 -107 c248 -59 643 -152 877 -207 234
-56 567 -135 740 -175 173 -41 325 -77 337 -80 22 -5 73 -85 54 -85 -5 0 -53
-4 -107 -10 -447 -45 -1801 -145 -2504 -185 -52 -3 -125 -8 -162 -11 l-68 -6
1 3233 c0 2489 3 3228 12 3209 7 -14 51 -110 99 -215z m-4628 -1510 c6 -100 2
-261 -18 -695 -15 -311 -30 -585 -33 -610 -4 -29 -27 207 -64 665 -32 391 -58
725 -58 743 l-1 33 83 -3 82 -3 9 -130z m-116 -2623 l-56 -1087 0 1765 0 1765
56 -678 55 -678 -55 -1087z m257 783 c64 -830 131 -1721 151 -1980 19 -259 37
-475 39 -481 2 -7 68 -13 187 -17 100 -4 275 -11 388 -17 113 -5 619 -28 1125
-50 506 -22 952 -42 991 -46 l72 -5 -79 -170 c-43 -92 -79 -172 -79 -177 0 -5
-98 -12 -217 -16 -120 -4 -335 -11 -478 -16 -254 -9 -1153 -33 -1731 -45
l-290 -6 -3 48 c-1 26 -60 777 -131 1668 l-130 1619 30 590 c16 325 31 602 31
616 1 14 3 18 5 10 2 -8 56 -694 119 -1525z m-55 -1524 c66 -822 119 -1496
117 -1497 -1 -2 -87 -4 -190 -6 l-187 -3 0 361 c0 300 10 560 60 1560 33 659
61 1210 61 1224 3 46 19 -141 139 -1639z m3914 -38 l437 -761 -3 -124 -3 -123
-473 739 -473 739 26 131 c35 174 36 179 45 169 4 -4 204 -351 444 -770z
m-804 -1202 c0 -145 -2 -170 -16 -175 -9 -3 -63 -6 -120 -6 -125 0 -123 -22
-18 196 l73 154 40 0 41 0 0 -169z m625 139 c270 -11 518 -23 553 -26 l62 -6
0 -108 0 -109 -32 -5 c-32 -5 -714 -40 -1035 -53 l-163 -6 0 165 c0 90 3 168
6 171 4 4 32 4 63 2 31 -3 277 -14 546 -25z"/>
</g>
</svg>
